<?xml version="1.0" encoding="UTF-8" standalone="no"?>
<!DOCTYPE svg PUBLIC "-//W3C//DTD SVG 1.1//EN" "http://www.w3.org/Graphics/SVG/1.1/DTD/svg11.dtd">
<svg width="100%" height="100%" viewBox="0 0 1185 1185" version="1.1" xmlns="http://www.w3.org/2000/svg" xmlns:xlink="http://www.w3.org/1999/xlink" xml:space="preserve" xmlns:serif="http://www.serif.com/" style="fill-rule:evenodd;clip-rule:evenodd;stroke-linecap:round;stroke-linejoin:round;stroke-miterlimit:1.5;">
    <g transform="matrix(1,0,0,1,-734.104,-1241.34)">
        <circle cx="1326.35" cy="1833.58" r="560.029" style="fill:white;stroke:black;stroke-width:50px;"/>
    </g>
    <g transform="matrix(1.08236,0,0,1.08236,-995.208,-1591.25)">
        <circle cx="1466.66" cy="2017.35" r="452.317" style="stroke:black;stroke-width:46.2px;"/>
    </g>
    <g transform="matrix(0.904307,0,0,0.904307,-639.019,-1062.22)">
        <path d="M1361.56,1188.44L1361.56,2470.63" style="fill:none;stroke:white;stroke-width:27.65px;"/>
    </g>
    <g transform="matrix(5.53728e-17,0.904307,-0.904307,5.53728e-17,2246.71,-639.019)">
        <path d="M1361.56,1188.44L1361.56,2470.63" style="fill:none;stroke:white;stroke-width:27.65px;"/>
    </g>
    <g transform="matrix(0.639441,0.639441,-0.639441,0.639441,891.49,-1448.27)">
        <path d="M1361.56,1188.44L1361.56,2470.63" style="fill:none;stroke:white;stroke-width:27.65px;"/>
    </g>
    <g transform="matrix(0.639441,-0.639441,0.639441,0.639441,-1448.27,293.001)">
        <path d="M1361.56,1188.44L1361.56,2470.63" style="fill:none;stroke:white;stroke-width:27.65px;"/>
    </g>
    <g transform="matrix(1,0,0,1,-768.908,-1243.01)">
        <circle cx="1152.05" cy="1453.69" r="19.165" style="fill:white;"/>
    </g>
    <g transform="matrix(1,0,0,1,-644.543,-1235.92)">
        <circle cx="1152.05" cy="1453.69" r="19.165" style="fill:white;"/>
    </g>
    <g transform="matrix(1,0,0,1,-474.745,-1280.88)">
        <circle cx="1152.05" cy="1453.69" r="19.165" style="fill:white;"/>
    </g>
    <g transform="matrix(1,0,0,1,-224.966,-1066.65)">
        <circle cx="1152.05" cy="1453.69" r="19.165" style="fill:white;"/>
    </g>
    <g transform="matrix(1,0,0,1,-117.337,-962.889)">
        <circle cx="1152.05" cy="1453.69" r="19.165" style="fill:white;"/>
    </g>
    <g transform="matrix(1,0,0,1,-281.993,-965.082)">
        <circle cx="1152.05" cy="1453.69" r="19.165" style="fill:white;"/>
    </g>
    <g transform="matrix(1,0,0,1,-353.241,-787.012)">
        <circle cx="1152.05" cy="1453.69" r="19.165" style="fill:white;"/>
    </g>
    <g transform="matrix(1,0,0,1,-182.648,-786.05)">
        <circle cx="1152.05" cy="1453.69" r="19.165" style="fill:white;"/>
    </g>
    <g transform="matrix(1,0,0,1,-246.753,-667.072)">
        <circle cx="1152.05" cy="1453.69" r="19.165" style="fill:white;"/>
    </g>
    <g transform="matrix(1,0,0,1,-300.253,-485.861)">
        <circle cx="1152.05" cy="1453.69" r="19.165" style="fill:white;"/>
    </g>
    <g transform="matrix(1,0,0,1,-448.585,-504.917)">
        <circle cx="1152.05" cy="1453.69" r="19.165" style="fill:white;"/>
    </g>
    <g transform="matrix(1,0,0,1,-463.037,-637.373)">
        <circle cx="1152.05" cy="1453.69" r="19.165" style="fill:white;"/>
    </g>
    <g transform="matrix(1,0,0,1,-760.264,-452.109)">
        <circle cx="1152.05" cy="1453.69" r="19.165" style="fill:white;"/>
    </g>
    <g transform="matrix(1,0,0,1,-649.045,-505.866)">
        <circle cx="1152.05" cy="1453.69" r="19.165" style="fill:white;"/>
    </g>
    <g transform="matrix(1,0,0,1,-647.929,-633.282)">
        <circle cx="1152.05" cy="1453.69" r="19.165" style="fill:white;"/>
    </g>
    <g transform="matrix(1,0,0,1,-790.054,-760.429)">
        <circle cx="1152.05" cy="1453.69" r="19.165" style="fill:white;"/>
    </g>
    <g transform="matrix(1,0,0,1,-956.723,-759.941)">
        <circle cx="1152.05" cy="1453.69" r="19.165" style="fill:white;"/>
    </g>
    <g transform="matrix(1,0,0,1,-901.453,-646.836)">
        <circle cx="1152.05" cy="1453.69" r="19.165" style="fill:white;"/>
    </g>
    <g transform="matrix(1,0,0,1,-752.583,-924.431)">
        <circle cx="1152.05" cy="1453.69" r="19.165" style="fill:white;"/>
    </g>
    <g transform="matrix(1,0,0,1,-905.133,-1074.24)">
        <circle cx="1152.05" cy="1453.69" r="19.165" style="fill:white;"/>
    </g>
    <g transform="matrix(1,0,0,1,-890.694,-945.949)">
        <circle cx="1152.05" cy="1453.69" r="19.165" style="fill:white;"/>
    </g>
    <g transform="matrix(1,0,0,1,-357.344,-1200.72)">
        <circle cx="1152.05" cy="1453.69" r="19.165" style="fill:white;"/>
    </g>
    <g transform="matrix(1,0,0,1,-458.151,-1072.06)">
        <circle cx="1152.05" cy="1453.69" r="19.165" style="fill:white;"/>
    </g>
    <g transform="matrix(1,0,0,1,-662.356,-1096.1)">
        <circle cx="1152.05" cy="1453.69" r="19.165" style="fill:white;"/>
    </g>
</svg>
